<?xml version="1.0" encoding="utf-8" ?><svg xmlns="http://www.w3.org/2000/svg" xmlns:xlink="http://www.w3.org/1999/xlink" width="1024" height="1024" viewBox="0 0 1024 1024"><path fill="#692F2D" d="M502.714 86.8713C737.657 81.8184 932.229 268.145 937.348 503.087C942.468 738.028 756.195 932.653 521.256 937.839C286.222 943.026 91.5022 756.663 86.381 521.628C81.2598 286.593 267.677 91.9261 502.714 86.8713Z"/><path fill="#F2DAB2" d="M493.299 106.04C717.836 95.8349 908.097 269.657 918.169 494.199C928.241 718.742 754.305 908.9 529.757 918.838C305.398 928.767 115.435 755.01 105.372 530.657C95.3082 306.304 268.952 116.237 493.299 106.04Z"/><path fill="#692F2D" d="M495.148 113.139C715.679 103.953 901.891 275.305 911.035 495.838C920.179 716.371 748.791 902.55 528.256 911.651C307.782 920.75 121.665 749.419 112.523 528.946C103.382 308.473 274.677 122.323 495.148 113.139Z"/><path fill="#F2DAB2" d="M512.074 201.435C684.351 201.605 823.856 341.432 823.628 513.71C823.401 685.988 683.527 825.445 511.249 825.16C339.053 824.874 199.676 685.081 199.904 512.886C200.131 340.69 339.878 201.266 512.074 201.435Z"/><path fill="#692F2D" d="M497.64 208.973C665.735 201.16 808.327 331.117 816.097 499.215C823.868 667.313 693.874 809.871 525.774 817.599C357.735 825.324 215.24 695.387 207.472 527.35C199.704 359.313 329.605 216.784 497.64 208.973Z"/><path fill="#A9B959" d="M437.035 228.318C467.471 220.564 489.662 218.407 521.01 218.628C536.145 219.519 546.788 220.453 561.843 222.758C574.369 225.218 585.027 227.636 597.29 231.374C608.829 235.322 620.248 239.224 631.372 244.264C649.151 252.297 666.107 262.04 681.999 273.356C696.874 284.158 707.196 292.79 720.16 305.866C733.794 319.774 742.855 330.826 754.176 346.831C763.15 360.371 771.351 373.794 778.03 388.668C786.56 406.985 791.538 421.254 796.918 440.565C798.797 448.27 800.433 456.033 801.821 463.842C802.331 466.758 803.636 475.987 804.363 478.353L804.145 479.703C804.61 482.327 804.833 484.776 805.103 487.418C805.712 493.735 805.766 499.79 806.282 505.923C806.651 508.704 806.637 511.198 806.674 513.986L806.46 515.09L806.485 517.979C806.391 522.233 805.923 537.198 805.2 540.978L804.733 545.142C804.358 549.434 804.025 552.022 803.19 556.233L802.788 559.882L802.333 561.989L801.521 567.445L800.837 571.278L798.856 580.051C797.309 586.906 794.366 595.519 793.194 601.336C792.124 604.579 791.1 607.786 789.857 610.968C787.387 617.734 784.702 625.197 781.654 631.733C778.793 638.511 768.61 659.961 764.236 665.311C763.61 666.227 762.573 667.843 761.927 668.663C761.187 669.921 760.455 671.273 759.565 672.418C758.408 674.461 757.959 675.322 756.496 677.114C754.139 676.287 750.156 677.045 746.352 675.784C746.574 673.77 746.47 670.022 746.474 667.875L746.127 665.341L745.172 661.427C742.926 649.715 745.589 642.209 744.433 632.105C743.671 631.628 740.918 628.475 739.499 627.351C738.167 626.836 735.5 625.806 734.117 625.815C721.205 625.893 707.37 628.833 694.658 630.147C685.105 631.743 666.206 627.729 655.544 626.111C657.036 624.475 658.363 623.51 657.896 621.253C656.526 620.03 654.539 619.834 652.68 619.432L647.94 621.419C640.547 615.231 638.197 616.45 631.125 621.926C628.013 620.229 624.996 618.923 621.568 620.582C620.456 622.21 620.68 621.339 620.84 623.278C617.043 625.882 606.444 626.731 602.447 628.968C597.091 628.399 589.047 626.465 583.536 625.284C576.676 624.485 567.847 622.569 560.909 621.249C555.522 620.317 549.516 619.425 544.275 618.045C538.581 617.645 529.433 615.672 523.739 614.555C517.045 614.215 504.089 610.815 496.076 609.957C493.19 611.645 490.96 610.935 488.002 609.97C485.867 611.312 485.8 611.73 483.675 611.571C480.757 609.924 481.404 608.386 478.645 607.556C484.083 604.635 496.644 615.031 500.12 599.988C498.922 593.015 492.836 590.51 494.971 580.35C494.969 580.195 495.857 574.814 495.97 573.741C500.825 575.611 502.44 576.085 507.429 574.403C510.859 572.198 512.296 570.454 514.836 567.42L515.445 564.913L515.519 564.961L515.937 564.85C515.526 563.094 512.466 560.96 511.011 559.832C506.582 559.378 494.938 556.824 490.197 555.776C488.702 555.605 487.5 555.607 486.009 555.588C482.626 554.176 480.149 553.524 476.515 554.107C475.531 554.736 475.259 554.834 474.104 555.012C474.018 555.302 473.931 555.591 473.845 555.881C470.377 557.905 467.987 559.758 464.77 562.19C459.716 565.172 457.575 557.624 446.458 561.827L445.521 563.193C444.589 565.008 444.693 564.106 444.989 565.961L444.588 567.203C438.811 569.731 430.943 567.43 425.407 568.875C390.918 577.878 356.54 569.356 321.785 566.551C306.289 565.301 299.743 559.858 285.301 571.594C284.565 573.508 283.069 578.358 281.64 579.318L282.304 579.786C282.181 580.977 282.065 582.045 281.891 583.233L281.53 590.574C281.9 597.643 282.081 604.722 282.074 611.801L282.006 625.089C280.946 633.235 278.495 641.625 278.451 649.616L278.717 652.123C272.206 651.616 256.3 647.019 248.384 645.703C247.284 643.835 246.093 641.148 245.131 639.141C242.675 635.365 237.525 621.646 235.628 616.768C233.991 612.503 232.618 608.281 231.186 603.948C230.422 601.832 229.745 599.575 229.058 597.423C228.32 595.47 227.259 591.106 226.667 588.91L225.512 584.453C224.799 581.646 224.378 579.739 223.904 576.851L223.137 575.067C222.704 570.65 221.53 567.257 221.272 562.143L220.587 558.965L220.162 556.409C219.496 553.235 219.063 547.593 218.664 544.131L218.308 538.368C218.138 537.858 217.635 530.4 217.535 529.257L217.567 527.322C217.045 524.083 217.094 520.099 217.243 516.828C217.389 508.899 217.722 488.638 219.363 480.92L219.358 479.473C222.615 458.491 223.975 450.448 229.791 429.515C234.274 414.646 239.95 400.162 246.762 386.204C254.033 370.868 262.62 356.191 272.426 342.337C283.281 327.113 292.262 316.746 305.51 303.55C318.465 290.781 330.063 281.71 344.713 271.185C357.058 261.939 376.531 251.488 390.483 245.074C398.723 239.892 427.569 231.029 437.035 228.318Z"/><path fill="#FBCE6E" d="M390.483 245.074C398.723 239.892 427.569 231.029 437.035 228.318C442.524 241.208 449.307 264.737 453.569 278.567L480.906 368.749L494.171 412.6C495.11 415.708 499.352 428.965 499.639 431.271C498.661 433.098 498.196 432.562 496.887 433.765L490.915 436.405C487.797 438.132 481.235 441.608 479.191 444.21L478.431 444.33C469.092 453.258 468.67 454.409 461.867 464.872C460.654 462.477 448.044 454.947 445.002 452.976L414.697 433.294L306.957 364.4L284.203 350.158C281.114 348.212 275.048 344.557 272.426 342.337C283.281 327.113 292.262 316.746 305.51 303.55C318.465 290.781 330.063 281.71 344.713 271.185C357.058 261.939 376.531 251.488 390.483 245.074Z"/><path fill="#FBCE6E" d="M390.483 245.074C398.723 239.892 427.569 231.029 437.035 228.318C442.524 241.208 449.307 264.737 453.569 278.567L480.906 368.749L494.171 412.6C495.11 415.708 499.352 428.965 499.639 431.271C498.661 433.098 498.196 432.562 496.887 433.765L490.915 436.405C487.797 438.132 481.235 441.608 479.191 444.21C477.307 441.198 465.266 426.576 462.435 422.948L426.887 376.879L373.671 308.221C365.001 297.015 353.72 281.412 344.713 271.185C357.058 261.939 376.531 251.488 390.483 245.074Z"/><path fill="#FABE4C" d="M390.483 245.074C398.723 239.892 427.569 231.029 437.035 228.318C442.524 241.208 449.307 264.737 453.569 278.567L480.906 368.749L494.171 412.6C495.11 415.708 499.352 428.965 499.639 431.271C498.661 433.098 498.196 432.562 496.887 433.765L490.915 436.405C488.659 435.514 481.156 419.647 479.578 416.589L461.057 380.621L408.752 279.634C406.159 274.634 393.217 247.895 390.483 245.074Z"/><path fill="#FABE4C" d="M344.713 271.185C353.72 281.412 365.001 297.015 373.671 308.221L426.887 376.879L462.435 422.948C465.266 426.576 477.307 441.198 479.191 444.21L478.431 444.33C474.635 445.685 473.222 447.817 470.516 450.823C466.357 448.358 456.076 438.579 452.128 434.956C442.251 425.868 432.327 416.83 422.357 407.844L305.51 303.55C318.465 290.781 330.063 281.71 344.713 271.185Z"/><path fill="#FBCE6E" d="M437.035 228.318C467.471 220.564 489.662 218.407 521.01 218.628C536.145 219.519 546.788 220.453 561.843 222.758C574.369 225.218 585.027 227.636 597.29 231.374C608.829 235.322 620.248 239.224 631.372 244.264C629.63 249.859 622.375 264.939 619.711 270.629L598.118 316.858C587.077 340.824 576.19 364.861 565.459 388.968C558.888 403.698 551.793 420.555 544.716 434.867L542.147 433.725C536.931 432.153 533.484 431.082 528.089 430.286L525.3 429.934C513.741 429.693 508.109 430.054 496.887 433.765C498.196 432.562 498.661 433.098 499.639 431.271C499.352 428.965 495.11 415.708 494.171 412.6L480.906 368.749L453.569 278.567C449.307 264.737 442.524 241.208 437.035 228.318Z"/><path fill="#FBCE6E" d="M561.843 222.758C574.369 225.218 585.027 227.636 597.29 231.374C608.829 235.322 620.248 239.224 631.372 244.264C629.63 249.859 622.375 264.939 619.711 270.629L598.118 316.858C587.077 340.824 576.19 364.861 565.459 388.968C558.888 403.698 551.793 420.555 544.716 434.867L542.147 433.725C536.931 432.153 533.484 431.082 528.089 430.286C529.469 428.411 531.141 414.676 531.614 411.554L536.43 380.915C542.17 345.991 547.719 311.035 553.075 276.05C554.839 264.365 556.663 252.688 558.548 241.022C559.39 235.826 560.492 227.636 561.843 222.758Z"/><path fill="#FABE4C" d="M597.29 231.374C608.829 235.322 620.248 239.224 631.372 244.264C629.63 249.859 622.375 264.939 619.711 270.629L598.118 316.858C587.077 340.824 576.19 364.861 565.459 388.968C558.888 403.698 551.793 420.555 544.716 434.867L542.147 433.725C540.837 432.556 539.888 432.402 538.46 430.986C540.98 419.417 547.12 400.985 550.633 389.171C557.882 364.043 565.259 338.952 572.763 313.899L588.251 260.208C590.518 252.408 594.252 238.387 597.29 231.374Z"/><path fill="#FABE4C" d="M521.01 218.628C536.145 219.519 546.788 220.453 561.843 222.758C560.492 227.636 559.39 235.826 558.548 241.022C556.663 252.688 554.839 264.365 553.075 276.05C547.719 311.035 542.17 345.991 536.43 380.915L531.614 411.554C531.141 414.676 529.469 428.411 528.089 430.286L525.3 429.934C523.538 429.447 523.2 429.89 521.386 428.761C520.897 427.629 521.646 415.89 521.646 413.492L521.46 367.207L521.01 218.628Z"/><path fill="#FBCE6E" d="M631.372 244.264C649.151 252.297 666.107 262.04 681.999 273.356C696.874 284.158 707.196 292.79 720.16 305.866C733.794 319.774 742.855 330.826 754.176 346.831C714.066 372.209 671.791 400.359 632.256 426.75L596.663 450.524C592.825 453.095 579.449 461.431 577.587 464.652C572.902 456.317 568.136 451.224 561.472 444.592C560.67 444.242 559.297 443.077 558.533 442.488C553.515 439.041 550.329 437.175 544.716 434.867C551.793 420.555 558.888 403.698 565.459 388.968C576.19 364.861 587.077 340.824 598.118 316.858L619.711 270.629C622.375 264.939 629.63 249.859 631.372 244.264Z"/><path fill="#FBCE6E" d="M631.372 244.264C649.151 252.297 666.107 262.04 681.999 273.356C672.049 285.542 661.184 301.201 651.781 314.053C633.1 339.482 614.602 365.045 596.289 390.74C584.19 407.598 571.246 426.211 558.533 442.488C553.515 439.041 550.329 437.175 544.716 434.867C551.793 420.555 558.888 403.698 565.459 388.968C576.19 364.861 587.077 340.824 598.118 316.858L619.711 270.629C622.375 264.939 629.63 249.859 631.372 244.264Z"/><path fill="#FABE4C" d="M681.999 273.356C696.874 284.158 707.196 292.79 720.16 305.866L615.415 404.634L587.985 430.395C581.565 436.451 574.256 443.677 567.255 449.005C565.057 446.785 564.365 445.652 561.472 444.592C560.67 444.242 559.297 443.077 558.533 442.488C571.246 426.211 584.19 407.598 596.289 390.74C614.602 365.045 633.1 339.482 651.781 314.053C661.184 301.201 672.049 285.542 681.999 273.356Z"/><path fill="#C18042" d="M739.882 565.153C745.971 564.852 752.951 563.861 759.145 563.391C773.634 562.292 788.297 560.768 802.788 559.882L802.333 561.989L801.521 567.445L800.837 571.278L798.856 580.051C797.309 586.906 794.366 595.519 793.194 601.336C792.124 604.579 791.1 607.786 789.857 610.968C787.387 617.734 784.702 625.197 781.654 631.733C778.793 638.511 768.61 659.961 764.236 665.311C763.61 666.227 762.573 667.843 761.927 668.663C761.187 669.921 760.455 671.273 759.565 672.418C758.408 674.461 757.959 675.322 756.496 677.114C754.139 676.287 750.156 677.045 746.352 675.784C746.574 673.77 746.47 670.022 746.474 667.875L746.127 665.341L745.172 661.427C742.926 649.715 745.589 642.209 744.433 632.105C743.671 631.628 740.918 628.475 739.499 627.351C738.167 626.836 735.5 625.806 734.117 625.815C721.205 625.893 707.37 628.833 694.658 630.147C685.105 631.743 666.206 627.729 655.544 626.111C657.036 624.475 658.363 623.51 657.896 621.253C656.526 620.03 654.539 619.834 652.68 619.432L647.94 621.419C640.547 615.231 638.197 616.45 631.125 621.926C628.013 620.229 624.996 618.923 621.568 620.582C620.456 622.21 620.68 621.339 620.84 623.278C617.043 625.882 606.444 626.731 602.447 628.968C597.091 628.399 589.047 626.465 583.536 625.284C576.676 624.485 567.847 622.569 560.909 621.249C555.522 620.317 549.516 619.425 544.275 618.045C538.581 617.645 529.433 615.672 523.739 614.555C517.045 614.215 504.089 610.815 496.076 609.957C493.19 611.645 490.96 610.935 488.002 609.97C485.867 611.312 485.8 611.73 483.675 611.571C480.757 609.924 481.404 608.386 478.645 607.556C484.083 604.635 496.644 615.031 500.12 599.988C498.922 593.015 492.836 590.51 494.971 580.35C494.969 580.195 495.857 574.814 495.97 573.741C500.825 575.611 502.44 576.085 507.429 574.403C514.967 573.645 533.335 578.89 541.608 580.712C546.214 581.726 568.431 586.177 571.192 587.805C579.693 586.523 588.177 585.137 596.644 583.649L609.611 581.805C613.431 581.184 623.421 579.693 626.81 578.653C635.005 577.964 647.577 575.815 656.09 574.704C675.217 572.243 694.366 569.963 713.536 567.863L714.542 567.638C721.25 567.273 733.37 566.209 739.882 565.153Z"/><defs><linearGradient id="gradient_0" gradientUnits="userSpaceOnUse" x1="691.08221" y1="599.18866" x2="697.94952" y2="627.70605"><stop offset="0" stop-color="#A76938"/><stop offset="1" stop-color="#D18F4B"/></linearGradient></defs><path fill="url(#gradient_0)" d="M583.536 625.284C585.618 624.013 605.91 619.324 609.632 618.423C672.241 603.435 735.354 590.637 798.856 580.051C797.309 586.906 794.366 595.519 793.194 601.336C792.124 604.579 791.1 607.786 789.857 610.968C787.387 617.734 784.702 625.197 781.654 631.733C778.793 638.511 768.61 659.961 764.236 665.311C763.61 666.227 762.573 667.843 761.927 668.663C761.187 669.921 760.455 671.273 759.565 672.418C758.408 674.461 757.959 675.322 756.496 677.114C754.139 676.287 750.156 677.045 746.352 675.784C746.574 673.77 746.47 670.022 746.474 667.875L746.127 665.341L745.172 661.427C742.926 649.715 745.589 642.209 744.433 632.105C743.671 631.628 740.918 628.475 739.499 627.351C738.167 626.836 735.5 625.806 734.117 625.815C721.205 625.893 707.37 628.833 694.658 630.147C685.105 631.743 666.206 627.729 655.544 626.111C657.036 624.475 658.363 623.51 657.896 621.253C656.526 620.03 654.539 619.834 652.68 619.432L647.94 621.419C640.547 615.231 638.197 616.45 631.125 621.926C628.013 620.229 624.996 618.923 621.568 620.582C620.456 622.21 620.68 621.339 620.84 623.278C617.043 625.882 606.444 626.731 602.447 628.968C597.091 628.399 589.047 626.465 583.536 625.284Z"/><path fill="#A16238" d="M793.194 601.336C792.124 604.579 791.1 607.786 789.857 610.968C787.387 617.734 784.702 625.197 781.654 631.733C778.793 638.511 768.61 659.961 764.236 665.311C763.61 666.227 762.573 667.843 761.927 668.663C761.187 669.921 760.455 671.273 759.565 672.418C758.408 674.461 757.959 675.322 756.496 677.114C754.139 676.287 750.156 677.045 746.352 675.784C746.574 673.77 746.47 670.022 746.474 667.875L746.127 665.341L745.172 661.427C742.926 649.715 745.589 642.209 744.433 632.105C743.671 631.628 740.918 628.475 739.499 627.351C738.167 626.836 735.5 625.806 734.117 625.815C721.205 625.893 707.37 628.833 694.658 630.147C692.684 629.911 692.399 629.937 690.622 629.144C689.002 628.969 686.094 628.957 684.368 628.891C707.689 621.95 732.485 616 756.078 609.86C764.965 607.547 784.857 602.126 793.194 601.336Z"/><path fill="#A16238" d="M781.654 631.733C778.793 638.511 768.61 659.961 764.236 665.311C763.61 666.227 762.573 667.843 761.927 668.663C761.187 669.921 760.455 671.273 759.565 672.418C758.408 674.461 757.959 675.322 756.496 677.114C754.139 676.287 750.156 677.045 746.352 675.784C746.574 673.77 746.47 670.022 746.474 667.875L746.127 665.341L745.172 661.427C742.926 649.715 745.589 642.209 744.433 632.105C746.909 633.518 746.021 640.269 745.814 643.075C754.018 640.373 774.123 633.242 781.654 631.733Z"/><path fill="#C18042" d="M746.127 665.341C751.29 666.148 757.249 668.037 761.927 668.663C761.187 669.921 760.455 671.273 759.565 672.418C758.408 674.461 757.959 675.322 756.496 677.114C754.139 676.287 750.156 677.045 746.352 675.784C746.574 673.77 746.47 670.022 746.474 667.875L746.127 665.341Z"/><path fill="#A16238" d="M746.474 667.875C746.744 668.845 746.873 670.216 747.551 670.505C751.048 671.997 755.758 671.899 759.565 672.418C758.408 674.461 757.959 675.322 756.496 677.114C754.139 676.287 750.156 677.045 746.352 675.784C746.574 673.77 746.47 670.022 746.474 667.875Z"/><path fill="#DDA154" d="M746.087 661.018C752.117 662.533 758.167 663.964 764.236 665.311C763.61 666.227 762.573 667.843 761.927 668.663C757.249 668.037 751.29 666.148 746.127 665.341L745.172 661.427L746.087 661.018Z"/><path fill="#DDA154" d="M744.433 632.105C746.909 633.518 746.021 640.269 745.814 643.075C745.133 647.371 745.393 656.544 746.087 661.018L745.172 661.427C742.926 649.715 745.589 642.209 744.433 632.105Z"/><path fill="#C18042" d="M738.902 625.172L739.199 624.826C745.254 622.805 787.554 610.232 789.857 610.968C787.387 617.734 784.702 625.197 781.654 631.733C774.123 633.242 754.018 640.373 745.814 643.075C746.021 640.269 746.909 633.518 744.433 632.105C743.671 631.628 740.918 628.475 739.499 627.351L738.902 625.172Z"/><path fill="#DDA154" d="M690.622 629.144C704.247 629.104 725.193 622.651 738.902 625.172L739.499 627.351C738.167 626.836 735.5 625.806 734.117 625.815C721.205 625.893 707.37 628.833 694.658 630.147C692.684 629.911 692.399 629.937 690.622 629.144Z"/><path fill="#C18042" d="M544.275 618.045C548.592 616.526 557.409 614.897 562.211 613.824L595.278 606.407C663.239 591.637 731.828 579.915 800.837 571.278L798.856 580.051C735.354 590.637 672.241 603.435 609.632 618.423C605.91 619.324 585.618 624.013 583.536 625.284C576.676 624.485 567.847 622.569 560.909 621.249C555.522 620.317 549.516 619.425 544.275 618.045Z"/><path fill="#DDA154" d="M739.882 565.153C745.971 564.852 752.951 563.861 759.145 563.391C773.634 562.292 788.297 560.768 802.788 559.882L802.333 561.989C800.247 562.601 787.299 563.655 784.409 563.957C769.341 565.452 754.286 567.066 739.243 568.799C667.45 577.281 595.99 588.383 525.008 602.086C520.65 602.939 498.51 606.992 495.823 608.97L496.076 609.957C493.19 611.645 490.96 610.935 488.002 609.97C485.867 611.312 485.8 611.73 483.675 611.571C480.757 609.924 481.404 608.386 478.645 607.556C484.083 604.635 496.644 615.031 500.12 599.988C498.922 593.015 492.836 590.51 494.971 580.35C494.969 580.195 495.857 574.814 495.97 573.741C500.825 575.611 502.44 576.085 507.429 574.403C514.967 573.645 533.335 578.89 541.608 580.712C546.214 581.726 568.431 586.177 571.192 587.805C579.693 586.523 588.177 585.137 596.644 583.649L609.611 581.805C613.431 581.184 623.421 579.693 626.81 578.653C635.005 577.964 647.577 575.815 656.09 574.704C675.217 572.243 694.366 569.963 713.536 567.863L714.542 567.638C721.25 567.273 733.37 566.209 739.882 565.153Z"/><path fill="#778947" d="M494.971 580.35C494.969 580.195 495.857 574.814 495.97 573.741C500.825 575.611 502.44 576.085 507.429 574.403C514.967 573.645 533.335 578.89 541.608 580.712C546.214 581.726 568.431 586.177 571.192 587.805C564.095 589.222 502.661 601.798 501.379 601.48L500.926 600.299L500.12 599.988C498.922 593.015 492.836 590.51 494.971 580.35Z"/><path fill="#FBCE6E" d="M494.971 580.35C496.64 583.505 495.6 585.948 496.563 589.005C498.189 594.166 500.855 594.548 500.926 600.299L500.12 599.988C498.922 593.015 492.836 590.51 494.971 580.35Z"/><path fill="#A16238" d="M801.521 567.445L800.837 571.278C731.828 579.915 663.239 591.637 595.278 606.407L562.211 613.824C557.409 614.897 548.592 616.526 544.275 618.045C538.581 617.645 529.433 615.672 523.739 614.555C528.094 612.521 552.559 607.838 558.561 606.538C616.424 593.814 674.784 583.468 733.494 575.526C745.779 573.822 757.812 572.297 770.128 570.873C780.495 569.673 791.061 567.808 801.521 567.445Z"/><path fill="#FBCE6E" d="M754.176 346.831C763.15 360.371 771.351 373.794 778.03 388.668C786.56 406.985 791.538 421.254 796.918 440.565C786.016 443.608 772.843 445.973 761.554 448.507L679.846 466.708L620.88 480.276C611.49 482.458 593.909 486.909 584.764 487.878C584.03 482.889 582.876 477.971 581.312 473.176C580.127 469.865 579.145 467.82 577.587 464.652C579.449 461.431 592.825 453.095 596.663 450.524L632.256 426.75C671.791 400.359 714.066 372.209 754.176 346.831Z"/><path fill="#FABE4C" d="M754.176 346.831C763.15 360.371 771.351 373.794 778.03 388.668C720.916 415.031 661.277 437.676 603.877 463.575C596.514 466.897 588.79 470.079 581.312 473.176C580.127 469.865 579.145 467.82 577.587 464.652C579.449 461.431 592.825 453.095 596.663 450.524L632.256 426.75C671.791 400.359 714.066 372.209 754.176 346.831Z"/><path fill="#FABE4C" d="M246.762 386.204C254.033 370.868 262.62 356.191 272.426 342.337C275.048 344.557 281.114 348.212 284.203 350.158L306.957 364.4L414.697 433.294L445.002 452.976C448.044 454.947 460.654 462.477 461.867 464.872L460.308 467.922C457.642 474.973 456.5 478.328 455.234 485.861C437.045 481.615 418.972 476.749 400.807 472.312L300.063 447.694L256.388 436.577C249.075 434.744 236.361 431.951 229.791 429.515C234.274 414.646 239.95 400.162 246.762 386.204Z"/><path fill="#FBCE6E" d="M246.762 386.204C263.162 391.955 285.152 401.951 301.564 408.794L396.901 448.43C405.189 451.916 451.882 472.628 457.054 472.64C458.013 471.202 459.117 468.983 460.308 467.922C457.642 474.973 456.5 478.328 455.234 485.861C437.045 481.615 418.972 476.749 400.807 472.312L300.063 447.694L256.388 436.577C249.075 434.744 236.361 431.951 229.791 429.515C234.274 414.646 239.95 400.162 246.762 386.204Z"/><defs><linearGradient id="gradient_1" gradientUnits="userSpaceOnUse" x1="391.13052" y1="543.39471" x2="398.69366" y2="493.47043"><stop offset="0" stop-color="#6E7E41"/><stop offset="1" stop-color="#90A24E"/></linearGradient></defs><path fill="url(#gradient_1)" d="M219.363 480.92L219.95 481.765C226.495 482.477 241.161 482.446 248.625 482.77C268.801 483.723 288.969 484.83 309.129 486.09C382.311 490.865 455.141 500.032 527.224 513.543C541.171 516.181 564.691 519.612 577.579 523.272C566.808 524.957 555.137 525.976 544.222 527.39C523.862 530.13 503.524 533.021 483.208 536.064C470.977 537.957 458.765 539.961 446.571 542.075C431.176 544.714 430.148 545.644 414.81 543.284C409.005 542.415 403.19 541.613 397.366 540.881C387.289 539.564 370.39 538.26 361.464 536.606C325.281 532.568 288.971 529.765 252.597 528.202C246.952 527.933 222.365 526.715 217.877 527.414L217.567 527.322C217.045 524.083 217.094 520.099 217.243 516.828C217.389 508.899 217.722 488.638 219.363 480.92Z"/><path fill="#455639" d="M224.601 519.66C235.215 501.99 253.271 502.257 262.899 520.702C265.734 516.518 268.832 513.411 274.029 512.384C277.815 511.614 281.749 512.504 284.835 514.829C288.54 517.627 290.047 521.174 291.091 525.536C296.616 523.96 297.885 524.78 302.853 527.491C304.776 523.277 306.756 519.571 311.536 517.886C314.374 516.914 317.482 517.106 320.179 518.42C325.502 520.973 327.475 525.632 329.441 530.75C336.109 520.23 343.657 520.067 348.646 531.906C353.245 530.32 362.288 530.088 364.2 535.614L364.098 536.431C363.221 536.499 362.342 536.557 361.464 536.606C325.281 532.568 288.971 529.765 252.597 528.202C246.952 527.933 222.365 526.715 217.877 527.414L217.567 527.322C217.045 524.083 217.094 520.099 217.243 516.828C220.311 517.797 221.642 518.27 224.601 519.66Z"/><path fill="#778947" d="M490.197 555.776C493.08 554.09 508.776 551.834 513.283 550.949C585.643 536.953 658.771 527.266 732.279 521.94C745.228 521.091 758.19 520.468 771.16 520.072C777.533 519.869 801.707 519.358 806.485 517.979C806.391 522.233 805.923 537.198 805.2 540.978L804.733 545.142C804.358 549.434 804.025 552.022 803.19 556.233L802.788 559.882C788.297 560.768 773.634 562.292 759.145 563.391C752.951 563.861 745.971 564.852 739.882 565.153C733.37 566.209 721.25 567.273 714.542 567.638L713.536 567.863C694.366 569.963 675.217 572.243 656.09 574.704C647.577 575.815 635.005 577.964 626.81 578.653C623.421 579.693 613.431 581.184 609.611 581.805L596.644 583.649C588.177 585.137 579.693 586.523 571.192 587.805C568.431 586.177 546.214 581.726 541.608 580.712C533.335 578.89 514.967 573.645 507.429 574.403C510.859 572.198 512.296 570.454 514.836 567.42L515.445 564.913L515.519 564.961L515.937 564.85C515.526 563.094 512.466 560.96 511.011 559.832C506.582 559.378 494.938 556.824 490.197 555.776Z"/><path fill="#455639" d="M660.809 563.04C666.906 552.302 678.504 550.033 688.366 557.306L689.892 558.746C692.423 562.043 693.007 563.284 694.382 567.31C700.398 561.447 708.024 560.937 713.536 567.863C694.366 569.963 675.217 572.243 656.09 574.704C647.577 575.815 635.005 577.964 626.81 578.653C629.996 574.611 634.639 577.439 636.721 572.846C637.505 571.118 638.451 569.184 639.773 568.155C645.296 563.858 646.636 568.709 651.183 570.271C654.917 568.702 652.975 567.271 659.005 567.87C659.936 566.854 660.377 564.524 660.809 563.04Z"/><path fill="#455639" d="M804.733 545.142C804.358 549.434 804.025 552.022 803.19 556.233L802.788 559.882C788.297 560.768 773.634 562.292 759.145 563.391C752.951 563.861 745.971 564.852 739.882 565.153L740.082 564.621C744.24 560.466 744.675 562.374 750.077 561.395C751.022 561.224 752.519 555.358 753.367 554.218C754.102 553.229 754.634 552.596 755.598 551.59L756.068 551.108C759.862 549.04 761.426 548.992 765.602 548.705C767.768 548.254 775.031 547.723 777.66 547.471C786.674 546.58 795.699 545.804 804.733 545.142Z"/><path fill="#778947" d="M804.733 545.142C804.358 549.434 804.025 552.022 803.19 556.233C799.344 556.821 794.329 557.41 790.738 558.629C783.236 552.72 782.207 553.486 775.648 555.852C775.403 555.94 769.244 550.397 766.3 549.027L765.602 548.705C767.768 548.254 775.031 547.723 777.66 547.471C786.674 546.58 795.699 545.804 804.733 545.142Z"/><path fill="#899B4C" d="M514.836 567.42L516.692 565.684C520.239 565.83 540.604 570.244 544.814 571.299C560.055 575.118 582.158 578.445 596.644 583.649C588.177 585.137 579.693 586.523 571.192 587.805C568.431 586.177 546.214 581.726 541.608 580.712C533.335 578.89 514.967 573.645 507.429 574.403C510.859 572.198 512.296 570.454 514.836 567.42Z"/><path fill="#778947" d="M689.892 558.746C697.658 558.559 706.568 556.783 714.422 555.811C728.264 554.1 742.16 552.215 756.068 551.108L755.598 551.59C754.634 552.596 754.102 553.229 753.367 554.218C752.519 555.358 751.022 561.224 750.077 561.395C744.675 562.374 744.24 560.466 740.082 564.621L739.882 565.153C733.37 566.209 721.25 567.273 714.542 567.638L713.536 567.863C708.024 560.937 700.398 561.447 694.382 567.31C693.007 563.284 692.423 562.043 689.892 558.746Z"/><path fill="#455639" d="M714.542 567.638C720.116 560.369 734.055 556.13 740.082 564.621L739.882 565.153C733.37 566.209 721.25 567.273 714.542 567.638Z"/><path fill="#A9B959" d="M511.011 559.832C535.916 563.687 562.213 571.006 586.969 576.204C590.686 576.984 607.512 581.743 609.611 581.805L596.644 583.649C582.158 578.445 560.055 575.118 544.814 571.299C540.604 570.244 520.239 565.83 516.692 565.684L514.836 567.42L515.445 564.913L515.519 564.961L515.937 564.85C515.526 563.094 512.466 560.96 511.011 559.832Z"/><path fill="#899B4C" d="M688.366 557.306C693.287 555.885 709.924 553.648 715.963 552.738C733.683 550.066 751.439 547.641 769.226 545.461C780.45 544.11 794.403 542.882 805.2 540.978L804.733 545.142C795.699 545.804 786.674 546.58 777.66 547.471C775.031 547.723 767.768 548.254 765.602 548.705C761.426 548.992 759.862 549.04 756.068 551.108C742.16 552.215 728.264 554.1 714.422 555.811C706.568 556.783 697.658 558.559 689.892 558.746L688.366 557.306Z"/><path fill="#899B4C" d="M647.122 564.63C649.655 563.933 658.673 562.141 660.809 563.04C658.409 564.215 649.369 566.017 647.122 564.63Z"/><defs><linearGradient id="gradient_2" gradientUnits="userSpaceOnUse" x1="311.67142" y1="562.81104" x2="313.60059" y2="549.29089"><stop offset="0" stop-color="#728245"/><stop offset="1" stop-color="#90A24E"/></linearGradient></defs><path fill="url(#gradient_2)" d="M218.308 538.368L218.997 537.106C225.725 536.866 248.71 539.959 256.076 540.915C303.034 547.249 349.68 555.714 395.869 566.284C399.426 567.132 408.599 568.721 411.274 570.32C416.152 569.276 421.562 567.829 426.452 567.317C431.792 566.758 437.734 567.138 443.028 566.121C444.567 565.826 443.458 565.841 444.989 565.961L444.588 567.203C438.811 569.731 430.943 567.43 425.407 568.875C390.918 577.878 356.54 569.356 321.785 566.551C306.289 565.301 299.743 559.858 285.301 571.594C284.565 573.508 283.069 578.358 281.64 579.318L282.304 579.786C282.181 580.977 282.065 582.045 281.891 583.233L281.53 590.574C281.9 597.643 282.081 604.722 282.074 611.801L282.006 625.089C280.946 633.235 278.495 641.625 278.451 649.616L278.717 652.123C272.206 651.616 256.3 647.019 248.384 645.703C247.284 643.835 246.093 641.148 245.131 639.141C242.675 635.365 237.525 621.646 235.628 616.768C233.991 612.503 232.618 608.281 231.186 603.948C230.422 601.832 229.745 599.575 229.058 597.423C228.32 595.47 227.259 591.106 226.667 588.91L225.512 584.453C224.799 581.646 224.378 579.739 223.904 576.851L223.137 575.067C222.704 570.65 221.53 567.257 221.272 562.143L220.587 558.965L220.162 556.409C219.496 553.235 219.063 547.593 218.664 544.131L218.308 538.368Z"/><path fill="#A16238" d="M225.512 584.453C228.687 584.471 231.834 584.857 234.979 585.277C250.443 587.34 266.077 588.522 281.53 590.574C281.9 597.643 282.081 604.722 282.074 611.801L282.006 625.089C280.946 633.235 278.495 641.625 278.451 649.616L278.717 652.123C272.206 651.616 256.3 647.019 248.384 645.703C247.284 643.835 246.093 641.148 245.131 639.141C242.675 635.365 237.525 621.646 235.628 616.768C233.991 612.503 232.618 608.281 231.186 603.948C230.422 601.832 229.745 599.575 229.058 597.423C228.32 595.47 227.259 591.106 226.667 588.91L225.512 584.453Z"/><path fill="#A16238" d="M235.628 616.768C250.674 619.166 265.53 622.895 280.527 625.571C280.957 625.648 281.638 625.338 282.006 625.089C280.946 633.235 278.495 641.625 278.451 649.616L278.717 652.123C272.206 651.616 256.3 647.019 248.384 645.703C247.284 643.835 246.093 641.148 245.131 639.141C242.675 635.365 237.525 621.646 235.628 616.768Z"/><path fill="#C18042" d="M245.131 639.141C246.434 638.653 273.819 644.96 277.237 646.014C278.281 647.123 278.092 647.832 278.451 649.616L278.717 652.123C272.206 651.616 256.3 647.019 248.384 645.703C247.284 643.835 246.093 641.148 245.131 639.141Z"/><path fill="#C18042" d="M231.186 603.948C233.406 603.463 275.998 611.136 282.074 611.801L282.006 625.089C281.638 625.338 280.957 625.648 280.527 625.571C265.53 622.895 250.674 619.166 235.628 616.768C233.991 612.503 232.618 608.281 231.186 603.948Z"/><path fill="#C18042" d="M226.667 588.91C226.957 588.712 227.247 588.514 227.537 588.316C242.608 589.534 267.341 593.025 281.341 595.256L281.516 604.98C269.85 602.926 258.139 601.135 246.393 599.608C241.586 598.952 233.558 597.666 229.058 597.423C228.32 595.47 227.259 591.106 226.667 588.91Z"/><path fill="#455639" d="M234.344 558.302L235.504 558.924C238.376 557.62 239.526 552.156 244.99 551.154C253.198 549.648 252.317 558.721 259.815 557.798C263.76 557.313 265.509 560.724 267.757 562.925C271.317 563.079 275.253 564.034 278.458 563.931L281.88 564.228C287.775 554.797 297.128 553.118 307.112 556.406C309.048 557.927 314.963 562.13 315.528 564.147C305.081 562.524 291.624 560.628 285.301 571.594C284.565 573.508 283.069 578.358 281.64 579.318L282.304 579.786C282.181 580.977 282.065 582.045 281.891 583.233L281.53 590.574C266.077 588.522 250.443 587.34 234.979 585.277C231.834 584.857 228.687 584.471 225.512 584.453C224.799 581.646 224.378 579.739 223.904 576.851L223.137 575.067C222.704 570.65 221.53 567.257 221.272 562.143L220.587 558.965C224.182 559.191 227.187 559.482 230.782 559.125C231.746 558.799 233.303 558.525 234.344 558.302Z"/><path fill="#C18042" d="M223.904 576.851C242.657 578.8 263.228 580.857 281.891 583.233L281.53 590.574C266.077 588.522 250.443 587.34 234.979 585.277C231.834 584.857 228.687 584.471 225.512 584.453C224.799 581.646 224.378 579.739 223.904 576.851Z"/><path fill="#DDA154" d="M223.137 575.067C240.03 574.959 264.407 578.031 281.64 579.318L282.304 579.786C282.181 580.977 282.065 582.045 281.891 583.233C263.228 580.857 242.657 578.8 223.904 576.851L223.137 575.067Z"/><path fill="#899B4C" d="M267.757 562.925C271.317 563.079 275.253 564.034 278.458 563.931L279.911 564.916L279.868 565.413C276.913 566.005 275.815 565.806 272.845 566.939C271.821 566.846 270.523 566.845 269.471 566.813C268.01 565.673 268.35 565.235 267.757 562.925Z"/><path fill="#778947" d="M220.587 558.965C224.182 559.191 227.187 559.482 230.782 559.125C229.037 560.776 228.39 561.381 226.998 563.316C224.628 563.978 224.302 562.757 221.272 562.143L220.587 558.965Z"/><path fill="#A9B959" d="M278.458 563.931L281.88 564.228L278.947 570.508C276.478 568.604 275.733 568.127 272.845 566.939C275.815 565.806 276.913 566.005 279.868 565.413L279.911 564.916L278.458 563.931Z"/><path fill="#778947" d="M218.664 544.131C222.727 545.006 229.683 545.127 234.043 545.553C239.303 546.067 244.392 546.69 249.638 547.321L303.563 553.576C308.31 554.121 313.121 555.308 317.587 555.727C314.117 556.678 306.636 553.866 304.372 554.709L305.307 555.082C306.299 555.489 306.481 555.522 307.112 556.406C297.128 553.118 287.775 554.797 281.88 564.228L278.458 563.931C275.253 564.034 271.317 563.079 267.757 562.925C265.509 560.724 263.76 557.313 259.815 557.798C252.317 558.721 253.198 549.648 244.99 551.154C239.526 552.156 238.376 557.62 235.504 558.924L234.344 558.302C233.303 558.525 231.746 558.799 230.782 559.125C227.187 559.482 224.182 559.191 220.587 558.965L220.162 556.409C219.496 553.235 219.063 547.593 218.664 544.131Z"/><path fill="#899B4C" d="M220.162 556.409C222.492 555.072 229.149 556.765 231.832 557.513C232.679 557.747 233.516 558.01 234.344 558.302C233.303 558.525 231.746 558.799 230.782 559.125C227.187 559.482 224.182 559.191 220.587 558.965L220.162 556.409Z"/><path fill="#FBCE6E" d="M285.301 571.594C291.624 560.628 305.081 562.524 315.528 564.147C319.566 565.235 332.796 566.168 337.491 566.635C361.391 569.012 387.432 573.818 411.274 570.32C416.152 569.276 421.562 567.829 426.452 567.317C431.792 566.758 437.734 567.138 443.028 566.121C444.567 565.826 443.458 565.841 444.989 565.961L444.588 567.203C438.811 569.731 430.943 567.43 425.407 568.875C390.918 577.878 356.54 569.356 321.785 566.551C306.289 565.301 299.743 559.858 285.301 571.594Z"/><path fill="#F2DAB2" d="M496.887 433.765C508.109 430.054 513.741 429.693 525.3 429.934L528.089 430.286C533.484 431.082 536.931 432.153 542.147 433.725L544.716 434.867C550.329 437.175 553.515 439.041 558.533 442.488C559.297 443.077 560.67 444.242 561.472 444.592C568.136 451.224 572.902 456.317 577.587 464.652C579.145 467.82 580.127 469.865 581.312 473.176C582.876 477.971 584.03 482.889 584.764 487.878C585.041 489.763 585.297 491.816 585.639 493.674C571.882 495.778 558.167 498.138 544.498 500.754C539.561 501.686 524.152 505.032 519.85 504.937C515.472 504.842 501.536 502.042 496.289 501.128C482.199 498.765 468.09 496.515 453.963 494.377C454.481 492.264 454.923 488.175 455.234 485.861C456.5 478.328 457.642 474.973 460.308 467.922L461.867 464.872C468.67 454.409 469.092 453.258 478.431 444.33L479.191 444.21C481.235 441.608 487.797 438.132 490.915 436.405L496.887 433.765Z"/><path fill="#FABE4C" d="M229.791 429.515C236.361 431.951 249.075 434.744 256.388 436.577L300.063 447.694L400.807 472.312C418.972 476.749 437.045 481.615 455.234 485.861C454.923 488.175 454.481 492.264 453.963 494.377C427.445 491.062 400.87 488.212 374.252 485.827C322.707 481.961 271.046 479.842 219.358 479.473C222.615 458.491 223.975 450.448 229.791 429.515Z"/><path fill="#899B4C" d="M804.145 479.703C804.61 482.327 804.833 484.776 805.103 487.418C805.712 493.735 805.766 499.79 806.282 505.923C806.651 508.704 806.637 511.198 806.674 513.986C800.116 513.316 791.648 513.493 784.9 513.47C772.602 513.396 760.303 513.492 748.007 513.757C728.346 514.173 703.466 514.227 684.087 515.925L678.081 516.05C675.934 515.85 674.004 516.311 672.12 515.315L671.795 515.221C666.373 509.381 664.887 514.729 661.049 506.608C655.04 502.088 650.627 503.062 645.988 508.959C639.032 508.95 597.137 517.145 592.408 519.614C575.428 515.862 555.838 511.344 538.718 508.511C554.546 504.582 575.327 501.641 591.792 498.991C632.564 492.486 673.586 487.659 714.755 484.524C744.63 482.336 774.411 481.437 804.145 479.703Z"/><path fill="#455639" d="M805.103 487.418C805.712 493.735 805.766 499.79 806.282 505.923C806.651 508.704 806.637 511.198 806.674 513.986C800.116 513.316 791.648 513.493 784.9 513.47C772.602 513.396 760.303 513.492 748.007 513.757C728.346 514.173 703.466 514.227 684.087 515.925L685.21 514.76C688.875 509.598 694.933 514.146 696.749 512.639C702.507 507.862 702.433 505.809 711.527 511.331C715.198 503.077 720.387 502.97 727.92 506C731.59 499.838 728.457 500.867 735.076 494.647C741.232 492.254 743.068 492.106 749.325 493.431C767.782 490.353 786.492 489.359 805.103 487.418Z"/><path fill="#778947" d="M805.103 487.418C805.712 493.735 805.766 499.79 806.282 505.923C800.26 504.437 798.378 503.652 792.414 506.185C786.459 491.816 772.046 490.383 766.337 505.767C762.629 503.769 762.322 503.779 758.177 504.635C755.618 498.553 754.508 497.121 749.325 493.431C767.782 490.353 786.492 489.359 805.103 487.418Z"/><path fill="#778947" d="M661.049 506.608C665.877 504.464 728.47 494.749 735.076 494.647C728.457 500.867 731.59 499.838 727.92 506C720.387 502.97 715.198 503.077 711.527 511.331C702.433 505.809 702.507 507.862 696.749 512.639C694.933 514.146 688.875 509.598 685.21 514.76L684.087 515.925L678.081 516.05C675.934 515.85 674.004 516.311 672.12 515.315L671.795 515.221C666.373 509.381 664.887 514.729 661.049 506.608Z"/><path fill="#455639" d="M672.12 515.315C676.835 510.077 680.313 510.168 685.21 514.76L684.087 515.925L678.081 516.05C675.934 515.85 674.004 516.311 672.12 515.315Z"/><path fill="#FABE4C" d="M796.918 440.565C798.797 448.27 800.433 456.033 801.821 463.842C802.331 466.758 803.636 475.987 804.363 478.353C751.162 477.96 697.98 480.527 645.064 486.04C628.446 487.733 601.664 490.376 585.639 493.674C585.297 491.816 585.041 489.763 584.764 487.878C593.909 486.909 611.49 482.458 620.88 480.276L679.846 466.708L761.554 448.507C772.843 445.973 786.016 443.608 796.918 440.565Z"/><path fill="#899B4C" d="M444.713 547.906C448.93 546.493 459.105 545.254 463.804 544.547L504.988 538.623C578.486 528.575 652.36 521.503 726.429 517.424C753.403 516.018 779.982 516.238 806.46 515.09L806.485 517.979C801.707 519.358 777.533 519.869 771.16 520.072C758.19 520.468 745.228 521.091 732.279 521.94C658.771 527.266 585.643 536.953 513.283 550.949C508.776 551.834 493.08 554.09 490.197 555.776C488.702 555.605 487.5 555.607 486.009 555.588C482.626 554.176 480.149 553.524 476.515 554.107C467.036 551.243 454.173 550.962 444.713 547.906Z"/><path fill="#778947" d="M217.535 529.257L218.42 531.099C220.867 531.81 228.617 532.257 231.53 532.553C243.36 533.758 255.416 534.238 267.221 535.437C320.563 540.582 373.657 548.042 426.351 557.796C429.733 558.44 443.28 560.69 445.131 562.15L445.521 563.193C444.589 565.008 444.693 564.106 444.989 565.961C443.458 565.841 444.567 565.826 443.028 566.121C437.734 567.138 431.792 566.758 426.452 567.317C421.562 567.829 416.152 569.276 411.274 570.32C408.599 568.721 399.426 567.132 395.869 566.284C349.68 555.714 303.034 547.249 256.076 540.915C248.71 539.959 225.725 536.866 218.997 537.106L218.308 538.368C218.138 537.858 217.635 530.4 217.535 529.257Z"/><path fill="#899B4C" d="M217.567 527.322L217.877 527.414C218.185 527.725 218.494 528.037 218.802 528.348C283.873 531.68 347.952 538.184 412.43 547.814C425.307 549.618 438.143 551.701 450.93 554.061C456.256 555.042 463.434 556.178 468.466 557.715C466.35 559.464 465.289 560.411 462.837 561.758L464.77 562.19C459.716 565.172 457.575 557.624 446.458 561.827L445.521 563.193L445.131 562.15C443.28 560.69 429.733 558.44 426.351 557.796C373.657 548.042 320.563 540.582 267.221 535.437C255.416 534.238 243.36 533.758 231.53 532.553C228.617 532.257 220.867 531.81 218.42 531.099L217.535 529.257L217.567 527.322Z"/><path fill="#FBCE6E" d="M446.458 561.827L446.04 561.518C454.375 555.325 456.363 561.017 462.837 561.758L464.77 562.19C459.716 565.172 457.575 557.624 446.458 561.827Z"/><path fill="#778947" d="M592.408 519.614C597.137 517.145 639.032 508.95 645.988 508.959C643.816 515.088 641.557 513.214 636.806 517.25C636.562 517.457 635.643 517.748 635.278 517.873L635.066 518.58C631.99 519.625 607.988 521.051 602.777 521.203C600.332 521.275 595.023 520.182 592.408 519.614Z"/><path fill="#455639" d="M645.988 508.959C650.627 503.062 655.04 502.088 661.049 506.608C664.887 514.729 666.373 509.381 671.795 515.221L672.12 515.315C674.004 516.311 675.934 515.85 678.081 516.05C671.309 516.862 662.265 516.995 655.298 517.37C648.797 517.72 641.411 518.412 635.066 518.58L635.278 517.873C635.643 517.748 636.562 517.457 636.806 517.25C641.557 513.214 643.816 515.088 645.988 508.959Z"/><path fill="#C18042" d="M608.965 636.023C610.305 637.373 619.962 638.648 624.042 640.445C626.262 646.711 629.257 645.868 634.734 644.359C637.663 646.205 639.188 647.174 641.593 649.857C643.639 651.843 645.119 654.296 646.477 656.806C649.008 662.895 647.257 663.866 651.679 669.808L651.967 670.187C654.245 673.564 655.233 675.29 658.338 677.948C658.779 680.377 659.25 682.758 659.527 685.211C659.982 690.883 659.675 698.932 655.929 703.764C654.832 705.178 654.104 705.039 652.199 705.061C646.813 705.761 626.246 705.623 619.966 705.553C604.711 705.382 585.913 706.698 571.17 705.917C569.323 703.823 571.749 693.677 571.531 690.46C571.442 689.139 572.49 688.512 573.463 687.862C576.796 684.22 580.516 678.964 581.577 674.103C581.969 672.308 581.991 672.158 582.715 670.383L582.899 669.942C585.234 665.813 589.593 659.79 593.827 657.567C597.827 655.656 598.992 658.48 604.792 655.812C606.852 653.164 605.482 650.93 603.598 648.534C601.369 647.208 600.962 644.099 600.229 641.484C601.502 640.081 603.171 640.237 605.429 639.845L608.965 636.023Z"/><path fill="#A16238" d="M608.965 636.023C610.305 637.373 619.962 638.648 624.042 640.445C626.262 646.711 629.257 645.868 634.734 644.359C637.663 646.205 639.188 647.174 641.593 649.857C643.639 651.843 645.119 654.296 646.477 656.806C649.008 662.895 647.257 663.866 651.679 669.808L651.967 670.187C654.245 673.564 655.233 675.29 658.338 677.948C658.779 680.377 659.25 682.758 659.527 685.211C642.934 683.03 624.422 678.312 607.856 675.193C603.35 674.344 586.258 671.223 582.899 669.942C585.234 665.813 589.593 659.79 593.827 657.567C597.827 655.656 598.992 658.48 604.792 655.812C606.852 653.164 605.482 650.93 603.598 648.534C601.369 647.208 600.962 644.099 600.229 641.484C601.502 640.081 603.171 640.237 605.429 639.845L608.965 636.023Z"/><path fill="#C18042" d="M608.965 636.023C610.305 637.373 619.962 638.648 624.042 640.445C626.262 646.711 629.257 645.868 634.734 644.359C637.663 646.205 639.188 647.174 641.593 649.857C643.639 651.843 645.119 654.296 646.477 656.806C649.008 662.895 647.257 663.866 651.679 669.808L651.967 670.187C645.552 669.297 595.841 658.813 593.827 657.567C597.827 655.656 598.992 658.48 604.792 655.812C606.852 653.164 605.482 650.93 603.598 648.534C601.369 647.208 600.962 644.099 600.229 641.484C601.502 640.081 603.171 640.237 605.429 639.845L608.965 636.023Z"/><path fill="#A16238" d="M608.965 636.023C610.305 637.373 619.962 638.648 624.042 640.445C626.262 646.711 629.257 645.868 634.734 644.359C637.663 646.205 639.188 647.174 641.593 649.857C643.639 651.843 645.119 654.296 646.477 656.806C639.964 655.915 607.244 648.008 603.598 648.534C601.369 647.208 600.962 644.099 600.229 641.484C601.502 640.081 603.171 640.237 605.429 639.845L608.965 636.023Z"/><path fill="#C18042" d="M608.965 636.023C610.305 637.373 619.962 638.648 624.042 640.445C626.262 646.711 629.257 645.868 634.734 644.359C637.663 646.205 639.188 647.174 641.593 649.857C638.271 649.692 602.184 642.497 600.229 641.484C601.502 640.081 603.171 640.237 605.429 639.845L608.965 636.023Z"/><path fill="#A16238" d="M652.199 705.061C646.813 705.761 626.246 705.623 619.966 705.553C604.711 705.382 585.913 706.698 571.17 705.917C569.323 703.823 571.749 693.677 571.531 690.46C571.442 689.139 572.49 688.512 573.463 687.862C576.969 688.358 590.202 690.632 593.2 691.677C601.588 694.602 647.914 701.558 652.199 705.061Z"/><path fill="#A16238" d="M327.218 648.063C327.52 646.141 327.051 646.62 328.103 645.757C337.884 651.121 340.757 652.498 351.105 656.397C352.138 658.845 353.226 661.212 353.946 663.766C356.099 665.546 356.951 665 359.553 664.219C360.671 662.155 361.454 659.891 362.299 657.691C363.523 656.506 369.631 655.87 371.783 655.542C379.788 654.322 387.59 651.793 395.596 650.838C398.197 650.547 405.223 652.905 407.941 653.831C408.489 661.467 407.742 670.447 410.854 677.035C411.522 679.662 411.532 680.424 411.603 683.158C411.397 686.366 409.499 696.399 411.003 698.368C411.5 699.018 413.125 699.302 413.703 701.312C413.53 703.077 413.925 702.588 413.022 703.538C408.837 703.817 402.301 703.484 397.859 703.383C389.107 703.155 380.354 703.004 371.599 702.931C369.15 703.017 366.152 703.321 363.858 702.711L363.39 701.729C364.878 699.028 366.6 695.249 368 692.411C364.248 695.643 362.871 697.114 360.11 701.08C359.768 696.782 359.489 693.822 358.719 689.605C357.639 695.709 357.502 697.799 358.162 703.97C356.365 701.048 353.569 696.061 349.926 695.675C351.269 697.809 354.233 699.938 352.704 702.678C347.249 702.303 340.643 702.492 335.095 702.514C332.037 698.456 329.237 695.015 327.093 690.4C325.84 688.411 324.727 683.882 324.256 681.537C322.985 676.068 322.147 670.829 322.783 665.239C324.387 659.547 325.866 653.82 327.218 648.063Z"/><path fill="#A16238" d="M362.299 657.691C363.523 656.506 369.631 655.87 371.783 655.542C379.788 654.322 387.59 651.793 395.596 650.838C398.197 650.547 405.223 652.905 407.941 653.831C408.489 661.467 407.742 670.447 410.854 677.035C405.409 675.041 392.698 672.228 386.771 670.762C380.371 669.179 366.567 665.462 360.378 664.901L359.553 664.219C360.671 662.155 361.454 659.891 362.299 657.691Z"/><path fill="#DDA154" d="M362.299 657.691C363.103 660.199 361.567 662.54 360.378 664.901L359.553 664.219C360.671 662.155 361.454 659.891 362.299 657.691Z"/><path fill="#C18042" d="M327.218 648.063C327.52 646.141 327.051 646.62 328.103 645.757C337.884 651.121 340.757 652.498 351.105 656.397C352.138 658.845 353.226 661.212 353.946 663.766C356.099 665.546 356.951 665 359.553 664.219L360.378 664.901C366.567 665.462 380.371 669.179 386.771 670.762C392.698 672.228 405.409 675.041 410.854 677.035C411.522 679.662 411.532 680.424 411.603 683.158C393.067 678.691 374.486 674.414 355.862 670.329C345.767 668.021 335.019 664.928 324.944 663.185C323.749 664.021 324.122 664.001 323.77 665.981L322.783 665.239C324.387 659.547 325.866 653.82 327.218 648.063Z"/><path fill="#A16238" d="M327.218 648.063C327.52 646.141 327.051 646.62 328.103 645.757C337.884 651.121 340.757 652.498 351.105 656.397C352.138 658.845 353.226 661.212 353.946 663.766C345.869 661.152 334.731 658.852 326.164 656.677C326.799 654.325 328.187 650.116 327.218 648.063Z"/><path fill="#C18042" d="M327.093 690.4C331.478 691.76 345.729 695.554 349.926 695.675C351.269 697.809 354.233 699.938 352.704 702.678C347.249 702.303 340.643 702.492 335.095 702.514C332.037 698.456 329.237 695.015 327.093 690.4Z"/><path fill="#DDA154" d="M322.783 665.239L323.77 665.981C323.891 670.348 324.282 675.543 324.943 680.003C324.951 680.051 324.387 681.33 324.256 681.537C322.985 676.068 322.147 670.829 322.783 665.239Z"/><path fill="#C18042" d="M363.39 701.729C366.39 701.376 369.225 700.728 371.599 702.931C369.15 703.017 366.152 703.321 363.858 702.711L363.39 701.729Z"/><path fill="#C18042" d="M478.645 607.556C481.404 608.386 480.757 609.924 483.675 611.571C485.8 611.73 485.867 611.312 488.002 609.97C490.96 610.935 493.19 611.645 496.076 609.957C504.089 610.815 517.045 614.215 523.739 614.555C529.433 615.672 538.581 617.645 544.275 618.045C549.516 619.425 555.522 620.317 560.909 621.249C559.841 624.201 559.954 625.456 562.666 627.522C567.496 628.423 582.521 630.555 585.464 633.064C583.635 634.545 583.808 634.973 581.76 634.788C578.041 634.453 576.07 632.616 572.944 634.732C572.35 636.503 572.51 635.895 573.053 637.988C574.213 638.636 574.133 638.583 574.726 639.779L574.338 640.778L572.862 641.223L572.255 641.37C551.768 646.138 531.658 646.512 511.015 642.376C481.643 636.49 492.602 657.045 488.759 671.07L488.508 671.953C488.436 671.673 487.952 670.28 487.6 670.16C476.653 666.406 463.788 664.607 452.661 661.884C448.448 660.853 447.799 661.469 445.529 660.279C449.666 655.731 451.839 648.932 455.713 646.246C461.769 638.8 459.472 637.202 462.123 628.993C464.421 621.876 473.199 612.456 478.645 607.556Z"/><path fill="#C18042" d="M478.645 607.556C481.404 608.386 480.757 609.924 483.675 611.571C485.8 611.73 485.867 611.312 488.002 609.97C490.96 610.935 493.19 611.645 496.076 609.957C504.089 610.815 517.045 614.215 523.739 614.555C529.433 615.672 538.581 617.645 544.275 618.045C549.516 619.425 555.522 620.317 560.909 621.249C559.841 624.201 559.954 625.456 562.666 627.522C567.496 628.423 582.521 630.555 585.464 633.064C583.635 634.545 583.808 634.973 581.76 634.788C578.041 634.453 576.07 632.616 572.944 634.732C572.35 636.503 572.51 635.895 573.053 637.988C574.213 638.636 574.133 638.583 574.726 639.779L574.338 640.778L572.862 641.223C571.87 640.782 562.511 641.447 560.099 641.447C552.91 639.602 540.589 637.735 532.89 636.344L491.598 628.604C485.974 627.566 470.778 625.075 466.431 623.321C463.806 627.308 462.644 629.8 462.068 634.714C461.237 639.265 460.981 640.89 458.37 644.881C456.992 645.919 457.139 646.178 455.713 646.246C461.769 638.8 459.472 637.202 462.123 628.993C464.421 621.876 473.199 612.456 478.645 607.556Z"/><path fill="#A16238" d="M469.927 618.687C476.833 620.936 498.507 624.154 506.217 625.479C528.579 629.188 550.863 633.358 573.053 637.988C574.213 638.636 574.133 638.583 574.726 639.779L574.338 640.778L572.862 641.223C571.87 640.782 562.511 641.447 560.099 641.447C552.91 639.602 540.589 637.735 532.89 636.344L491.598 628.604C485.974 627.566 470.778 625.075 466.431 623.321L469.927 618.687Z"/><defs><linearGradient id="gradient_3" gradientUnits="userSpaceOnUse" x1="515.9024" y1="609.31604" x2="502.03375" y2="658.37268"><stop offset="0" stop-color="#DEA151"/><stop offset="1" stop-color="#F1CB83"/></linearGradient></defs><path fill="url(#gradient_3)" d="M478.645 607.556C481.404 608.386 480.757 609.924 483.675 611.571C485.8 611.73 485.867 611.312 488.002 609.97C490.96 610.935 493.19 611.645 496.076 609.957C504.089 610.815 517.045 614.215 523.739 614.555C529.433 615.672 538.581 617.645 544.275 618.045C549.516 619.425 555.522 620.317 560.909 621.249C559.841 624.201 559.954 625.456 562.666 627.522L475.896 611.905C473.266 614.471 472.183 615.766 469.927 618.687L466.431 623.321C463.806 627.308 462.644 629.8 462.068 634.714C461.237 639.265 460.981 640.89 458.37 644.881C456.992 645.919 457.139 646.178 455.713 646.246C461.769 638.8 459.472 637.202 462.123 628.993C464.421 621.876 473.199 612.456 478.645 607.556Z"/><path fill="#C18042" d="M455.713 646.246C457.139 646.178 456.992 645.919 458.37 644.881C467.222 647.955 479.679 648.98 488.629 651.77C488.274 655.661 487.807 667.605 488.759 671.07L488.508 671.953C488.436 671.673 487.952 670.28 487.6 670.16C476.653 666.406 463.788 664.607 452.661 661.884C448.448 660.853 447.799 661.469 445.529 660.279C449.666 655.731 451.839 648.932 455.713 646.246Z"/><path fill="#A16238" d="M462.068 634.714C468.646 635.535 476.208 637.365 482.815 638.666C486.673 639.425 492.002 640.225 495.66 641.095C490.389 644.465 490.028 645.91 488.629 651.77C479.679 648.98 467.222 647.955 458.37 644.881C460.981 640.89 461.237 639.265 462.068 634.714Z"/><path fill="#DDA154" d="M495.66 641.095C502.843 639.33 506.179 640.444 513.482 641.353C528.134 643.176 545.828 646.981 560.099 641.447C562.511 641.447 571.87 640.782 572.862 641.223L572.255 641.37C551.768 646.138 531.658 646.512 511.015 642.376C481.643 636.49 492.602 657.045 488.759 671.07C487.807 667.605 488.274 655.661 488.629 651.77C490.028 645.91 490.389 644.465 495.66 641.095Z"/><path fill="#A16238" d="M453.296 716.735C476.113 715.929 502.18 716.767 525.049 716.883C589.678 717.199 654.291 718.9 718.847 721.985L712.589 727.56C691.843 727.416 669.27 726.147 648.346 725.43C622.068 724.545 595.781 723.929 569.489 723.584C518.303 722.934 467.111 722.863 415.922 723.37C380.592 723.543 343.548 723.579 308.274 725.498L302.191 719.484C307.105 719.477 312.132 719.277 317.048 719.094C362.464 717.407 407.869 717.433 453.296 716.735Z"/><path fill="#A16238" d="M400.227 734.728C417.153 734.232 435.156 734.405 452.193 734.371C490.636 734.142 529.079 734.664 567.501 735.938C611.044 737.138 654.566 739.002 698.052 741.531C695.043 743.663 692.01 745.76 688.953 747.822C666.494 746.42 644.332 745.682 621.909 744.572C610.547 744.501 598.035 743.691 586.498 743.379C557.812 742.616 529.123 742.011 500.43 741.563C442.993 740.933 385.55 741.415 328.131 743.009C325.771 741.227 323.074 738.867 320.761 736.945C347.242 735.958 373.732 735.219 400.227 734.728Z"/><path fill="#A16238" d="M437.277 760.763C511.885 759.848 586.498 761.959 660.935 767.092C657.009 769.567 653.022 771.945 648.979 774.223C625.954 772.819 602.913 771.713 579.859 770.906C574.883 770.379 567.963 770.349 562.865 770.179C551.593 769.777 540.318 769.494 529.041 769.329C494.198 768.558 459.344 768.443 424.497 768.987L389.47 769.559C383.171 769.69 375.727 770.046 369.485 769.706C366.449 769.54 358.607 764.372 355.429 762.556C365.152 762.493 375.461 761.895 385.251 761.644L437.277 760.763Z"/><path fill="#A16238" d="M445.529 660.279C447.799 661.469 448.448 660.853 452.661 661.884C463.788 664.607 476.653 666.406 487.6 670.16C487.952 670.28 488.436 671.673 488.508 671.953C487.117 676.527 485.033 685.272 488.178 689.53C490.649 686.804 490.546 674.993 491.425 671.132C493.499 669.879 493.053 670.555 493.794 668.616C494.608 672.124 495.181 675.448 495.799 678.997C494.257 682.398 492.859 684.331 490.77 687.424C492.864 695.791 493.145 697.119 492.629 705.462C488.807 705.422 477.776 705.499 474.519 704.871C472.898 702.186 475.108 701.515 473.164 700.6L470.353 704.638C468.212 702.007 467.067 700.859 464.598 698.534C465.538 700.044 467.612 702.936 467.75 704.516C463.909 705.126 450.657 704.617 446.23 704.527C442.164 698.843 441.085 697.247 438.856 690.735L437.618 685.692C436.939 676.666 440.167 673.368 441.134 663.672L445.529 660.279Z"/><path fill="#C18042" d="M437.618 685.692L438.164 684.046C439.865 684.03 438.856 684.104 440.243 684.523C457.142 689.626 474.617 693.369 491.686 697.969C491.909 698.322 492.132 698.676 492.355 699.03L492.253 700.7C488.853 702.244 443.886 689.885 438.856 690.735L437.618 685.692Z"/><path fill="#A16238" d="M711.688 671.578C713.368 670.66 715.307 669.242 717.071 669.516C718.081 670.634 717.964 670.803 718.336 672.312C719.743 675.652 720.683 678.515 721.323 682.117C721.846 685.659 720.327 694.327 718.419 697.043C717.244 699.624 715.857 701.955 714.45 704.409L698.722 704.536C700.63 700.723 701.011 700.083 703.567 696.605C699.322 699.629 697.335 701.881 693.784 705.694C695.206 702.711 696.537 699.403 697.832 696.34C694.751 699.352 693.838 700.393 691.666 703.986C691.493 701.457 691.118 697.551 689.223 695.761L688.168 696.552C688.309 697.921 689.074 698.599 688.963 700.473C687.955 699.914 684.775 695.528 683.216 693.917C684.635 696.59 687.549 702.144 686.225 705.005C684.532 705.449 680.991 704.019 678.712 703.508C678.458 704.669 678.698 704.227 678.178 704.921L672.553 704.983L675.217 700.507C674.602 695.873 674.392 693.578 674.359 688.873C675.483 684.92 675.909 674.98 676.45 673.712C684.495 670.12 690.293 673.854 699.34 674.122L700.078 674.139C700.946 676.092 701.157 677.422 703.351 677.889C704.892 677.093 705.331 675.686 706.168 674.077L711.688 671.578Z"/><path fill="#C18042" d="M674.359 688.873C678.954 689.309 716.369 695.791 718.419 697.043C717.244 699.624 715.857 701.955 714.45 704.409L698.722 704.536C700.63 700.723 701.011 700.083 703.567 696.605C699.322 699.629 697.335 701.881 693.784 705.694C695.206 702.711 696.537 699.403 697.832 696.34C694.751 699.352 693.838 700.393 691.666 703.986C691.493 701.457 691.118 697.551 689.223 695.761L688.168 696.552C688.309 697.921 689.074 698.599 688.963 700.473C687.955 699.914 684.775 695.528 683.216 693.917C684.635 696.59 687.549 702.144 686.225 705.005C684.532 705.449 680.991 704.019 678.712 703.508C678.458 704.669 678.698 704.227 678.178 704.921L672.553 704.983L675.217 700.507C674.602 695.873 674.392 693.578 674.359 688.873Z"/><path fill="#C18042" d="M711.688 671.578C713.368 670.66 715.307 669.242 717.071 669.516C718.081 670.634 717.964 670.803 718.336 672.312C719.743 675.652 720.683 678.515 721.323 682.117C721.189 682.71 721.044 682.851 720.75 683.403C716.152 683.089 679.832 675.349 676.45 673.712C684.495 670.12 690.293 673.854 699.34 674.122L700.078 674.139C700.946 676.092 701.157 677.422 703.351 677.889C704.892 677.093 705.331 675.686 706.168 674.077L711.688 671.578Z"/><path fill="#A16238" d="M711.688 671.578C713.368 670.66 715.307 669.242 717.071 669.516C718.081 670.634 717.964 670.803 718.336 672.312C715.281 672.735 714.449 672.914 711.688 671.578Z"/><path fill="#A16238" d="M248.384 645.703C256.3 647.019 272.206 651.616 278.717 652.123C280.664 661.963 277.131 660.02 281.882 671.775C282.479 666.646 284.21 659.161 285.703 654.093L286.708 654.67L287.517 653.739C290.398 660.933 291.434 673.367 291.489 681.175C291.519 685.975 291.026 690.233 290.219 694.937C291.88 696.553 294.452 698.534 292.754 700.742C290.556 701.62 287.911 701.323 285.462 701.282C279.397 694.088 270.598 682.621 265.646 675.026C261.447 670.49 251.097 651.392 248.384 645.703Z"/><path fill="#C18042" d="M265.646 675.026C267.893 674.975 288.833 680.12 291.489 681.175C291.519 685.975 291.026 690.233 290.219 694.937C291.88 696.553 294.452 698.534 292.754 700.742C290.556 701.62 287.911 701.323 285.462 701.282C279.397 694.088 270.598 682.621 265.646 675.026Z"/><path fill="#A16238" d="M435.937 792.238C468.96 791.652 501.992 791.702 535.014 792.387C556.367 792.894 578.02 794.233 599.284 794.516C593.129 795.959 586.261 797.96 580.105 799.616C578.47 799.947 571.89 801.31 570.483 801.296C560.405 801.193 550.016 800.461 539.93 800.099C525.458 799.632 510.982 799.28 496.505 799.043C484.785 798.97 473.066 798.957 461.346 799.007C441.268 799.048 438.97 799.069 419.698 792.449L435.937 792.238Z"/><path fill="#A16238" d="M515.894 681.225C518.339 682.26 528.572 687.656 529.431 687.627C532.789 685.049 546.343 682.674 549.57 685.235C550.799 686.21 552.332 704.618 552.125 705.988C550.367 707.087 536.395 706.264 532.872 706.47C533.551 701.618 534.162 697.54 535.158 692.716C531.956 697.808 531.399 699.559 529.836 705.422C528.001 700.399 527.187 698.77 523.962 694.388C524.779 698.444 525.455 701.994 526.026 706.085C524.425 705.97 521.421 705.847 519.957 705.574C518.348 705.92 518.163 706.088 516.539 705.711C515.039 704.563 514.703 702.835 514.072 701.006C511.428 692.677 513.207 689.419 515.894 681.225Z"/><path fill="#C18042" d="M514.072 701.006C516.27 700.17 522.215 702.422 524.095 703.868L524.219 704.886C522.957 705.693 521.519 705.526 519.957 705.574C518.348 705.92 518.163 706.088 516.539 705.711C515.039 704.563 514.703 702.835 514.072 701.006Z"/><path fill="#DDA154" d="M560.909 621.249C567.847 622.569 576.676 624.485 583.536 625.284C589.047 626.465 597.091 628.399 602.447 628.968C606.444 626.731 617.043 625.882 620.84 623.278C624.214 626.612 624.484 626.703 629.131 627.694C628.636 630.222 628.21 634.611 625.974 636.054C625.138 637.613 624.419 638.708 624.042 640.445C619.962 638.648 610.305 637.373 608.965 636.023C607.55 630.827 601.328 633.578 598.41 635.482C593.403 631.691 591.402 629.559 585.464 633.064C582.521 630.555 567.496 628.423 562.666 627.522C559.954 625.456 559.841 624.201 560.909 621.249Z"/><path fill="#C18042" d="M620.84 623.278C624.214 626.612 624.484 626.703 629.131 627.694C628.636 630.222 628.21 634.611 625.974 636.054L625.654 635.119C623.961 633.089 607.115 630.53 602.447 628.968C606.444 626.731 617.043 625.882 620.84 623.278Z"/><path fill="#C18042" d="M738.606 660.177L738.955 660.222C739.182 662.671 739.997 663.177 741.902 664.61C741.302 671.678 743.114 675.798 745.875 682.252L746.352 675.784C750.156 677.045 754.139 676.287 756.496 677.114L748.685 688.074C746.49 691.185 742.014 696.349 739.48 699.646C739.418 695.006 739.203 689.605 739.62 685.047L741.759 674.169C739.855 672.089 739.237 671.036 737.781 668.7C737.929 665.911 738.306 662.967 738.606 660.177Z"/><path fill="#A16238" d="M739.48 699.646C739.418 695.006 739.203 689.605 739.62 685.047L740.229 686.582C742.82 687.598 745.465 687.336 748.685 688.074C746.49 691.185 742.014 696.349 739.48 699.646Z"/><path fill="#A16238" d="M305.519 659.567C311.549 671.449 312.378 673.833 314.948 687.325C311.145 686.248 306.117 684.891 302.203 683.805C301.884 683.982 301.566 684.159 301.247 684.337C299.669 675.967 302.363 667.238 305.519 659.567Z"/><path fill="#C18042" d="M301.247 684.337C301.566 684.159 301.884 683.982 302.203 683.805C306.117 684.891 311.145 686.248 314.948 687.325C315.385 689.365 315.899 695.148 316.704 696.977C316.972 697.586 320.128 698.926 320.853 701.165C319.528 702.021 310.79 701.83 308.348 701.883C303.372 695.782 302.238 692.064 301.247 684.337Z"/><path fill="#DDA154" d="M285.703 654.093C288.048 642.888 284.995 641.312 285.058 632.076C285.114 623.931 285.637 611.127 286.457 603.104C286.935 607.857 287.404 611.826 288.181 616.543L290.309 627.128C292.482 635.255 294.08 641 289.287 649.109C288.882 649.784 288.46 650.45 288.022 651.105L287.517 653.739L286.708 654.67L285.703 654.093Z"/><path fill="#A16238" d="M290.309 627.128C292.482 635.255 294.08 641 289.287 649.109C288.882 649.784 288.46 650.45 288.022 651.105C288.252 641.779 286.071 636.361 286.507 626.63C287.772 627.444 288.305 627.928 289.804 628.172L290.309 627.128Z"/><path fill="#C18042" d="M288.181 616.543L290.309 627.128L289.804 628.172C288.305 627.928 287.772 627.444 286.507 626.63C287.144 622.765 286.799 620.624 288.181 616.543Z"/><path fill="#A16238" d="M421.008 678.717C423.633 680.708 425.713 680.497 428.986 681.481L429.092 687.192C428.916 690.506 428.552 693.93 428.503 697.221C428.473 699.244 429.829 699.616 431.702 701.281C432.16 703.058 432.242 702.246 431.69 703.808C426.06 705.169 425.084 701.256 423.201 696.786C421.692 693.205 421.014 689.259 420.358 685.44C420.42 682.683 420.409 681.48 421.008 678.717Z"/><path fill="#C18042" d="M421.008 678.717C423.633 680.708 425.713 680.497 428.986 681.481L429.092 687.192C426.173 686.944 423.069 686.565 420.358 685.44C420.42 682.683 420.409 681.48 421.008 678.717Z"/><path fill="#A16238" d="M729.084 683.994C729.86 682.137 729.795 681.334 731.169 680.414C732.329 681.455 732.828 683.53 733.372 685.098C734.301 689.222 734.307 692.861 733.331 696.997C732.402 699.543 731.361 702.015 730.331 704.52L720.67 704.44C724.054 701.584 724.346 701.653 724.736 697.399C726.264 693.138 726.778 688.07 729.084 683.994Z"/><path fill="#C18042" d="M724.736 697.399C727.462 697.399 730.724 697.563 733.331 696.997C732.402 699.543 731.361 702.015 730.331 704.52L720.67 704.44C724.054 701.584 724.346 701.653 724.736 697.399Z"/><path fill="#C18042" d="M729.084 683.994C729.86 682.137 729.795 681.334 731.169 680.414C732.329 681.455 732.828 683.53 733.372 685.098C730.965 685.042 730.781 685.217 729.084 683.994Z"/><defs><linearGradient id="gradient_4" gradientUnits="userSpaceOnUse" x1="510.76614" y1="555.06982" x2="493.23386" y2="564.43018"><stop offset="0" stop-color="#D3C767"/><stop offset="1" stop-color="#9DAD51"/></linearGradient></defs><path fill="url(#gradient_4)" d="M476.515 554.107C480.149 553.524 482.626 554.176 486.009 555.588C487.5 555.607 488.702 555.605 490.197 555.776C494.938 556.824 506.582 559.378 511.011 559.832C512.466 560.96 515.526 563.094 515.937 564.85L515.519 564.961L515.445 564.913C511.816 562.205 509.413 561.753 505.111 560.596C501.963 561.433 499.392 563.229 495.918 564.296C489.399 564.85 489.258 552.72 473.845 555.881C473.931 555.591 474.018 555.302 474.104 555.012C475.259 554.834 475.531 554.736 476.515 554.107Z"/><path fill="#FBCE6E" d="M476.515 554.107C480.149 553.524 482.626 554.176 486.009 555.588C489.754 557.982 494.063 562.921 495.774 563.572L495.918 564.296C489.399 564.85 489.258 552.72 473.845 555.881C473.931 555.591 474.018 555.302 474.104 555.012C475.259 554.834 475.531 554.736 476.515 554.107Z"/><path fill="#C18042" d="M501.758 690.627C503.686 693.315 506.675 697.322 507.889 700.37L508.852 703.111L509.231 704.697L508.456 705.319C504.268 705.996 502.976 706.337 498.854 704.911C497.721 703.527 498.101 704.371 498.326 702.018L498.589 699.516C499.637 696.135 500.393 693.879 501.758 690.627Z"/><path fill="#A16238" d="M501.758 690.627C503.686 693.315 506.675 697.322 507.889 700.37C504.52 699.915 501.988 699.703 498.589 699.516C499.637 696.135 500.393 693.879 501.758 690.627Z"/><path fill="#A16238" d="M498.326 702.018C500.663 702.832 506.544 704.036 508.852 703.111L509.231 704.697L508.456 705.319C504.268 705.996 502.976 706.337 498.854 704.911C497.721 703.527 498.101 704.371 498.326 702.018Z"/><path fill="#A16238" d="M559.368 689.537C561.065 690.161 561.134 690.152 562.712 691.218C563.483 696.26 564.758 700.377 565.687 705.252C564.597 706.437 565.277 705.963 563.115 706.104L562.546 706.144L561.63 706.196C559.847 706.31 559.028 706.634 557.537 705.665C555.915 702.209 558.727 699.152 559.334 695.604C559.595 694.081 559.437 691.164 559.368 689.537Z"/><path fill="#C18042" d="M666.624 683.915C671.499 689.809 670.13 699.534 665.478 705.185C664.308 705.187 664.315 705.146 663.183 704.794C662.871 702.732 665.153 701.357 665.128 700.441C664.961 694.444 665.253 689.818 666.624 683.915Z"/><path fill="#A16238" d="M421.008 678.717C424.265 672.055 424.416 670.86 425.064 663.414C425.907 672.327 427.922 674.833 428.986 681.481C425.713 680.497 423.633 680.708 421.008 678.717Z"/><path fill="#C18042" d="M741.711 640.193C742.202 643.796 743.208 661.128 742.132 663.794L741.902 664.61C739.997 663.177 739.182 662.671 738.955 660.222L738.606 660.177C739.812 653.337 740.587 646.802 741.711 640.193Z"/><path fill="#DDA154" d="M738.955 660.222L741.496 659.812C742.565 661.047 742.136 661.628 742.132 663.794L741.902 664.61C739.997 663.177 739.182 662.671 738.955 660.222Z"/><path fill="#DDA154" d="M492.672 651.47C493.071 657.967 492.93 661.944 493.794 668.616C493.053 670.555 493.499 669.879 491.425 671.132C490.828 663.934 491.089 658.472 492.672 651.47Z"/><path fill="#F2DAB2" d="M171.065 369.142C183.349 365.718 196.071 372.948 199.416 385.253C202.761 397.559 195.449 410.235 183.123 413.5C170.907 416.737 158.371 409.505 155.056 397.311C151.742 385.117 158.892 372.534 171.065 369.142Z"/><path fill="#692F2D" d="M170.387 375.626C195.687 374.102 207.038 401.05 184.64 406.733C157.857 408.708 147.239 380.971 170.387 375.626Z"/><path fill="#F2DAB2" d="M672.742 174.277C685.234 172.487 696.823 181.132 698.666 193.617C700.51 206.101 691.914 217.727 679.437 219.623C666.885 221.531 655.174 212.872 653.32 200.312C651.465 187.752 660.174 176.077 672.742 174.277Z"/><path fill="#692F2D" d="M677.685 177.67C701.642 179.879 692.17 213.227 674.228 216.37C651.336 213.981 659.288 181.058 677.685 177.67Z"/><path fill="#F2DAB2" d="M862.908 375.633L864.412 376.337C866.019 379.066 871.683 396.126 872.232 399.263C875.901 420.216 850.986 431.495 834.796 418.419C830.768 414.103 823.045 396.82 823.275 391.265L823.967 390.714C825.919 391.368 825.703 391.677 827.322 393.423C835.574 391.128 853.176 384.639 861.636 380.957C862.501 380.58 862.678 377.091 862.908 375.633Z"/><path fill="#692F2D" d="M864.042 387.531C865.614 388.656 866.128 390.812 866.824 392.555C873.791 410.021 852.488 423.231 837.73 415.011C832.781 410.499 831.812 406.27 830.419 400.107C835.113 397.53 857.864 389.783 864.042 387.531Z"/><path fill="#F2DAB2" d="M371.726 162.691C387.776 163.147 396.272 179.638 390.8 193.684C386.634 204.374 371.594 209.007 361.756 213.157L360.72 213.118L360.41 212.452C361.031 210.759 362.167 209.911 363.471 208.628C360.257 199.176 353.979 186.695 350.097 177.23C349.309 175.309 345.753 174.346 343.793 173.72L343.974 173.109C348.966 169.762 365.579 163.309 371.726 162.691Z"/><path fill="#692F2D" d="M367.595 167.619C384.051 167.604 392.128 190.487 379.958 200.88C378.319 202.28 375.76 203.34 373.773 204.235C372.118 204.738 372.003 204.793 370.189 204.942C368.158 203.697 357.039 176.245 355.343 172.203C360.308 169.515 362.078 168.637 367.595 167.619Z"/><path fill="#F2DAB2" d="M777.173 244.223C780.204 245.326 782.212 249.456 784.826 251.673C792.385 258.084 800.91 269.825 788.568 276.6C784.225 278.984 780.355 277.889 775.817 276.368C772.723 287.764 771.343 289.667 771.54 301.194L770.822 301.466C768.403 300.581 766.569 298.064 765.138 296.03C765.453 289.185 766.83 285.193 768.666 278.622L770.361 272.698C769.484 271.461 768.326 270.124 767.347 268.934C764.071 271.757 759.299 275.522 756.591 278.801C755.094 280.613 757.024 282.162 757.582 284.571L756.954 285.449C754.265 284.793 745.253 274.344 743.198 271.783C745.623 272.57 748.092 273.791 750.428 274.858C758.098 269.271 765.083 261.864 772.342 255.803C781.131 248.463 776.426 250.52 777.173 244.223Z"/><path fill="#692F2D" d="M782.922 255.366C792.785 260.848 788.74 273.948 777.136 272.701C773.244 270.846 772.538 270.146 770.043 266.613C774.143 262.649 778.442 258.895 782.922 255.366Z"/><path fill="#F2DAB2" d="M560.573 136.976C563.003 137.239 569.483 138.811 572.169 139.368C573.755 149.553 577.536 164.616 579.859 175.086C586.464 165.208 594.321 155.404 601.095 145.428C603.869 146.066 609.922 146.676 611.777 148.307C610.604 149.785 608.658 149.227 607.21 150.258C604.85 151.938 600.827 181.062 600.302 185.687C603.114 187.668 604.388 188.526 606.845 190.952C602.598 190.062 592.381 188.539 589.14 186.88L588.897 186.114C590.187 184.861 591.686 184.939 593.553 184.69C594.994 178.683 596.129 171.04 597.191 164.877C597.743 161.511 598.32 158.149 598.921 154.791C591.273 165.01 584.149 176.318 576.215 186.238C573.384 178.38 569.379 157.688 567.476 148.761C565.83 154.785 562.445 170.017 561.021 176.597C560.742 177.886 564.906 179.601 565.464 181.45L564.677 182.212C562.882 181.979 561.093 181.693 559.315 181.354C557.012 180.898 552.471 180.276 551.256 178.445C552.351 177.319 553.6 177.377 555.226 177.141L555.999 177.034C558.664 171.957 563.85 148.662 565.015 142.146C562.886 140.266 561.019 139.316 560.573 136.976Z"/><path fill="#F2DAB2" d="M242.078 251.532C243.799 251.417 245.521 251.272 247.21 251.69C250.139 252.387 252.629 254.305 254.053 256.958C256.294 261.186 255.486 264.879 254.207 269.071C258.31 269.673 272.957 272.169 276.108 271.325L279.857 270.339L280.496 271.328C278.897 282.207 258.184 276.043 251.166 274.757L247.181 277.92C250.277 281.004 254.889 286.868 259.073 288.451C260.318 288.923 261.559 287.819 262.791 287.087C263.901 286.561 263.448 286.702 264.732 286.688L265.151 287.457C264.244 290.205 254.564 299.54 251.81 301.405C252.489 298.875 253.409 296.682 254.361 294.25C248.866 288.108 234.016 273.923 227.648 268.779C226.198 269.735 224.563 271.248 222.889 270.543C222.946 267.584 235.167 256.082 237.76 253.769C238.541 253.072 241.004 251.975 242.078 251.532Z"/><path fill="#692F2D" d="M239.629 257.548C240.1 257.527 240.572 257.515 241.043 257.511C243.891 257.498 246.324 258.396 248.31 260.518C249.913 262.248 250.735 264.56 250.583 266.913C250.359 270.916 248.037 273.336 245.211 275.93C241.022 272.474 236.37 267.637 232.492 263.744C234.889 260.697 236.312 259.495 239.629 257.548Z"/><path fill="#F2DAB2" d="M837.838 323.66C840.022 324.525 842.469 329.72 843.913 332.15C838.048 344.893 832.062 357.579 825.956 370.208C833.245 366.499 845.441 360.641 852.093 356.188C851.695 354.415 851.099 352.923 851.698 351.292L852.469 351.103C854.529 352.893 859.484 360.703 858.058 363.136C856.015 362.735 856.115 362.273 854.28 360.611C846.797 363.219 825.555 374.652 817.696 378.645C816.483 378.326 817.024 378.599 816.168 377.632C816.382 373.163 832.16 341.601 835.041 335.694C828.719 338.362 813.064 346.555 806.859 349.944C807.168 351.617 808.176 354.716 806.604 355.764C804.011 354.119 800.718 346.973 799.792 344.036L800.406 343.531C802.288 343.81 803.494 345.027 805.015 346.213C811.606 343.643 832.271 333.464 837.93 329.772C837.554 327.098 837.297 326.307 837.838 323.66Z"/><path fill="#F2DAB2" d="M820.991 296.152L822.256 296.474C822.731 297.139 823.426 297.862 822.797 298.81C815.005 310.542 805.769 321.511 798.795 333.749C797.825 335.45 799.259 337.559 797.925 339.206C796.366 338.535 789.786 329.153 788.568 327.436C789.368 326.282 788.828 326.723 790.474 326.406C791.623 327.197 792.293 327.871 793.658 327.888C795.611 326.585 799.99 321.139 799.838 318.767C796.917 314.626 794.071 310.432 791.3 306.189C787.281 307.069 784.491 307.798 780.571 309.028C781.035 310.928 781.771 312.397 780.553 314.002C777.949 313.452 773.06 304.782 771.605 302.219C773.812 303.161 775.89 304.299 778.016 305.411C792.382 302.482 806.661 298.99 820.991 296.152Z"/><path fill="#692F2D" d="M811.645 301.603L812.415 301.607L812.646 302.218C809.366 306.862 806.373 311.506 802.927 316.061C801.911 315.911 801.46 314.881 800.59 313.808C798.47 310.867 796.871 308.446 794.955 305.364L811.645 301.603Z"/><path fill="#F2DAB2" d="M203.129 294.275C206.178 294.581 215.074 297.136 218.301 297.999L245.544 305.304C247.213 304.292 247.922 303.658 249.874 303.51L250.367 304.111C249.695 306.193 243.019 315.864 241.16 316.638C240.14 314.871 241.122 313.269 240.526 311.109C237.921 309.55 234.457 308.845 231.46 308.029C229.141 311.047 226.732 314.574 224.494 317.697L221.757 321.503C223.748 325.032 225.244 327.337 227.847 330.402C230.629 328.736 231.241 328.345 234.436 327.379C232.411 330.762 226.27 338.621 223.646 341.632C223.765 340.444 224.721 335.157 224.42 334.455C218.856 321.466 208.671 309.182 202.716 296.241C202.854 295.585 202.991 294.93 203.129 294.275Z"/><path fill="#692F2D" d="M210.052 302.383C215.889 304.178 221.781 305.782 227.722 307.195L223.552 312.869L219.674 318.259C216.649 314.084 212.521 306.871 210.052 302.383Z"/><path fill="#F2DAB2" d="M527.676 133.694L529.669 134.195C530.89 136.173 532.615 141.954 533.475 144.498C536.641 153.863 539.723 163.262 543.155 172.537C544.194 175.343 547.812 177.077 547.936 178.94C546.401 179.582 533.496 178.918 532.295 177.958C532.782 176.876 535.324 175.359 536.526 174.493C536.332 172.057 534.442 167.317 533.55 164.815L526.124 164.527C523.111 164.522 520.411 164.351 517.41 164.16C515.618 167.685 514.6 170.194 513.427 173.925C515.14 174.694 516.61 175.014 517.102 176.918C515.165 178.562 505.273 177.122 502.573 176.865C504.45 175.708 506.456 174.723 508.418 173.707C514.037 164.67 522.986 143.907 527.676 133.694Z"/><path fill="#692F2D" d="M526.648 144.438C528.576 149.207 530.774 156.275 532.497 161.263L524.376 160.979C522.824 160.958 520.471 160.715 518.856 160.603C521.142 155.375 524.11 149.615 526.648 144.438Z"/><path fill="#F2DAB2" d="M736.631 216.583C749.978 215.663 758.167 223.189 764.896 233.67C762.917 236.091 761 238.589 758.717 240.719L757.685 240.314C756.703 237.701 759.886 234.933 758.218 231.793C741.912 201.107 702.861 246.274 734.362 259.234C737.074 257.008 740.783 252.302 742.98 249.562C741.614 247.692 740.723 247.205 740.535 244.828L741.083 244.411C743.507 245.411 752.495 252.323 753.298 254.501L752.842 255.35C751.054 255.311 750.24 255.032 748.537 254.601C745.985 255.37 740.479 262.736 738.529 265.118C729.436 261.652 718.99 254.903 716.667 244.91C713.359 230.677 723.528 219.538 736.631 216.583Z"/><path fill="#F2DAB2" d="M421.673 144.496C422.518 144.492 422.149 144.492 423.048 145.02C424.507 148.464 425.079 151.897 425.578 155.571C423.426 153.657 421.843 151.449 420.087 149.179C414.927 150.366 411.293 151.458 406.312 153.065C407.639 158.341 408.901 163.271 410.467 168.493C414.958 167.333 417.126 166.602 421.359 164.759C421.195 162.462 420.829 161.471 422.042 159.757L422.914 160.163C424.717 163.102 426.74 168.731 426.212 172.173L425.501 172.575C423.864 171.992 423.053 170.438 421.996 168.967C418.198 169.813 415.265 170.817 411.563 172.053C412.959 177.669 414.192 182.258 415.943 187.783C420.238 187.316 424.901 185.84 428.975 184.475C432.826 182.163 430.785 180.758 433.632 176.888L434.267 177.007C435.016 179.329 435.401 184.105 435.693 186.71C431.445 187.804 408.693 195.188 406.5 193.392C407.251 191.493 407.604 191.685 409.437 190.178C407.504 180.653 402.978 165.802 400.104 156.08C399.715 154.765 396.149 154.443 394.596 152.983L394.826 152.018C396.589 151.239 400.759 150.516 402.958 149.931C409.244 148.287 415.484 146.475 421.673 144.496Z"/><path fill="#F2DAB2" d="M880.071 428.335C880.456 428.642 881.057 429.116 881.166 429.555C883.332 438.225 885.388 447.926 887.993 456.345C885.098 457.223 882.727 458.258 879.786 458.001L879.317 457.304C880.06 455.543 881.442 454.863 883.043 453.716C882.159 448.541 881.13 444.653 879.785 439.615C874.221 441.201 869.859 442.282 864.196 443.467C865.169 448.881 864.642 454.325 871.071 454.712L871.633 454.741C872.892 455.767 872.589 455.123 872.868 456.545C870.942 457.841 862.288 459.541 859.595 459.256L859.238 458.605C860.001 457.18 860.865 456.935 862.32 456.143L862.917 455.824C862.493 453.441 861.502 446.128 859.852 444.585C854.416 445.799 849.598 446.929 844.221 448.423C844.811 454.322 845.807 457.783 847.96 463.283C849.99 463.771 853.076 464.175 854.16 465.937L853.617 466.654C850.693 467.833 847.563 467.93 844.387 468.26C843.467 463.911 836.861 440.501 839.445 438.512C841.196 439.337 840.928 439.72 842.122 441.815C849.757 440.915 870.613 435.395 878.707 433.296C879.115 430.942 879.194 430.528 880.071 428.335Z"/><path fill="#F2DAB2" d="M278.747 215.327C280.575 216.101 283.43 219.674 284.096 221.687L283.665 222.445C281.918 222.625 280.485 221.425 278.917 220.457C275.006 222.962 270.676 226.937 267.088 230.028C270.441 234.004 273.857 237.926 277.334 241.794C279.847 240.058 283.763 237.273 285.648 234.99C285.842 231.65 282.642 231.242 284.968 228.76L285.809 228.856C287.65 230.992 293.26 236.976 293.447 239.423L292.802 239.877C290.05 239.771 290.262 239.268 287.753 238.598C285.642 239.396 281.794 243.002 279.892 244.632C282.887 249.03 287.102 253.794 290.755 257.647C294.752 254.515 299.342 251.057 302.591 247.173C302.343 243.944 301.19 243.385 302.148 239.866L302.793 239.824C304.66 242.177 306.539 245.584 308.107 248.236C299.811 254.448 291.382 262.909 282.815 268.944C283.558 266.881 284.65 264.583 285.551 262.554C281.913 256.73 266.642 239.171 261.569 234.037C260.016 234.853 259.067 235.606 257.365 235.416L257.035 234.714C258.849 231.258 274.805 218.61 278.747 215.327Z"/><path fill="#F2DAB2" d="M624.649 151.448C628.915 152.294 635.17 155.502 639.516 156.866C643.371 158.076 648.837 161.067 650.695 164.781C656.018 175.423 643.264 185.906 633.082 181.7C630.985 180.834 630.418 180.995 629.292 178.811C630.737 176.428 645.738 183.141 644.671 167.766C644.343 163.04 636.343 156.171 633.683 160.64C629.709 171.352 625.415 182.444 621.984 193.294C623.571 194.475 624.861 195.184 625.789 196.906L625.53 197.686C622.966 197.863 611.863 193.861 610.162 192.167L610.94 191.465C611.678 191.356 613.84 191.042 614.208 190.638C618.763 185.63 626.449 162.315 628.105 156.412L627.636 155.954C625.771 154.076 625.191 154.115 624.649 151.448Z"/><path fill="#F2DAB2" d="M484.068 134.192C488.96 133.911 491.869 134.268 496.604 135.369C496.525 138.016 497.376 143.184 496.007 144.871C494.271 143.962 494.101 141.968 492.902 140.572C489.507 136.703 482.295 137.08 477.969 138.955C462.062 145.848 467.707 175.51 485.124 175.983C489.201 176.094 492.894 174.601 495.867 171.897C496.969 169.734 497.332 168.23 499.22 167.067L499.887 167.567C500.54 170.286 500.101 173.008 499.88 175.838C496.72 177.368 493.361 178.445 489.901 179.036C455.379 185.158 449.513 137.699 484.068 134.192Z"/><path fill="#F2DAB2" d="M311.027 193.013C313.185 194.126 316.846 200.904 318.08 203.186C312.961 200.565 307.314 194.141 301.577 202.519C293.408 214.447 312.47 212.698 318.917 212.3C330.337 211.594 335.631 221.017 330.688 231.031C327.884 236.728 320.566 239.56 314.922 241.266C312.702 238.351 310.808 236.315 309.294 232.951C309.886 232.052 324.188 239.688 327.378 229.8C330.02 219.98 322.054 218.446 314.53 219.603C290.862 223.241 288.003 200.236 311.027 193.013Z"/><path fill="#F2DAB2" d="M145.831 418.899C148.519 419.54 152.386 420.309 154.503 421.917L154.433 422.66C151.944 424.215 147.606 423.866 145.753 425.791C143.615 428.012 143.721 436.169 146.849 437.808C157.214 443.239 162.725 424.416 172.234 424.289C188.187 424.075 188.18 443.882 179.383 452.979C176.385 452.416 172.113 451.822 169.599 450.283C169.698 447.738 177.693 448.596 180.431 445.179C183.065 441.891 182.664 433.715 178.86 431.991C166.263 426.28 160.569 453.018 146.374 443.881C137.393 438.101 140.945 426.188 145.831 418.899Z"/><path fill="#F2DAB2" d="M177.663 335.734C178.724 336.637 178.445 336.242 178.926 337.519C178.693 339.07 178.622 339.617 178.589 341.238C180.095 344.17 206.197 357.329 210.805 359.163C212.291 356.992 218.75 347.911 217.23 345.029C215.869 342.449 215.006 342.82 214.549 339.196L215.099 338.493C217.426 338.728 221.764 342.75 223.642 344.371C221.83 347.497 220.051 350.642 218.306 353.805C216.289 357.921 210.949 367.468 208.441 371.089L207.479 371.08C205.723 367.711 210.848 366.571 202.287 362.346C193.475 357.996 184.822 352.158 175.695 348.519C174.46 348.027 172.526 351.024 170.627 351.392L169.711 350.598C170.552 348.011 176.054 338.596 177.663 335.734Z"/></svg>